<?xml version="1.0" standalone="no"?>
<!DOCTYPE svg PUBLIC "-//W3C//DTD SVG 20010904//EN"
 "http://www.w3.org/TR/2001/REC-SVG-20010904/DTD/svg10.dtd">
<svg version="1.0" xmlns="http://www.w3.org/2000/svg"
 width="64.000000pt" height="64.000000pt" viewBox="0 0 64.000000 64.000000"
 preserveAspectRatio="xMidYMid meet">
<metadata>
Created by potrace 1.16, written by Peter Selinger 2001-2019
</metadata>
<g transform="translate(0.000000,64.000000) scale(0.100000,-0.100000)"
fill="#000000" stroke="none">
<path d="M0 320 l0 -320 320 0 320 0 0 320 0 320 -320 0 -320 0 0 -320z m393
208 c27 -28 27 -32 21 -102 -6 -71 -6 -73 24 -108 18 -20 48 -40 71 -47 49
-14 81 -53 81 -98 0 -46 -25 -81 -67 -92 -39 -11 -71 0 -132 44 -22 16 -47 25
-71 25 -24 0 -49 -9 -71 -25 -61 -44 -93 -55 -132 -44 -96 26 -87 162 12 189
79 21 120 83 100 153 -14 50 -11 73 16 106 42 49 102 49 148 -1z"/>
</g>
</svg>
